<svg id="vxlogo-spinner"
     data-name="vxlogo-spinner"
     xmlns="http://www.w3.org/2000/svg"
     viewBox="0 0 341.07 246.61"
>
    <defs>

        <style>
            #vxlogo-spinner {
            max-width: 95%;
            max-height: 95%;
            }

            .cls-1, .cls-2, .cls-3 {
            fill-rule: evenodd;
            }

            .cls-1 {
            fill: url(#Verlauf_1);
            }

            .cls-2 {
            fill: url(#Verlauf_2);
            }

            .cls-3 {
            fill: #ff4d3c;
            }

            .cls-4 {
            fill-opacity: 0;
            stroke: #fff;
            stroke-width: 26.8;
            stroke-dasharray: 1400;
            animation: draw 1.8s infinite ease-in-out alternate;
            -webkit-animation: draw 1.8s infinite ease-in-out alternate;
            -moz-animation: draw 1.8s infinite ease-in-out alternate;
            }

            @keyframes draw {
            100%, 90% {
            stroke-dashoffset: 1400;
            }

            5%, 0% {
            stroke-dashoffset: 0;
            }
            }
        </style>

        <linearGradient id="Verlauf_1"
                        x1="230.4"
                        y1="161.51"
                        x2="293.05"
                        y2="210.73"
                        gradientUnits="userSpaceOnUse"
        >
            <stop offset="0" stop-color="#9e3026"/>
            <stop offset="0.02" stop-color="#a93329"/>
            <stop offset="0.09" stop-color="#c43b2f"/>
            <stop offset="0.17" stop-color="#da4234"/>
            <stop offset="0.27" stop-color="#eb4737"/>
            <stop offset="0.38" stop-color="#f64a3a"/>
            <stop offset="0.55" stop-color="#fd4c3c"/>
            <stop offset="1" stop-color="#ff4d3c"/>
        </linearGradient>
        <linearGradient id="Verlauf_2"
                        x1="203.76"
                        y1="47.71"
                        x2="150.49"
                        y2="8"
                        gradientUnits="userSpaceOnUse"
        >
            <stop offset="0" stop-color="#9e3026"/>
            <stop offset="0.1" stop-color="#bc392d"/>
            <stop offset="0.21" stop-color="#d44032"/>
            <stop offset="0.33" stop-color="#e74637"/>
            <stop offset="0.47" stop-color="#f54a3a"/>
            <stop offset="0.65" stop-color="#fd4c3b"/>
            <stop offset="1" stop-color="#ff4d3c"/>
        </linearGradient>

        <mask id="mask_1">
            <polyline fill="none"
                      style="stroke-dasharray: 1400;"
                      class="cls-4"
                      points="115.09 39.98 170.09 117.98 243.09 13.98 315.09 13.98 170.09 222.98 26.09 13.98 170.09 12.98 307.09 210.98 235.09 211.98 207.09 171.98"
            />
        </mask>
    </defs>

    <path class="cls-1"
          mask="url(#mask_1)"
          d="M222.74,170.34,243,199.66h40L242.8,141.49l16.34-23.34L334,226.35H229l-22.48-32.52Z"
    />

    <polygon class="cls-2"
             mask="url(#mask_1)"
             points="177.52 0.01 206.83 42.47 190.74 66.15 163.51 26.77 177.52 0.01"
    />

    <polygon class="cls-3"
             mask="url(#mask_1)"
             points="341.07 0 235.98 0 170.5 94.8 141.95 53.51 109.48 53.51 170.5 141.75 249.99 26.76 290.04 26.76 170.5 199.65 50.99 26.81 163.5 26.76 164.29 27.89 178.41 1.3 177.51 0 0 0.03 170.5 246.61 341.07 0"
    />
</svg>