<?xml version="1.0" encoding="utf-8"?>
<!-- Generator: Adobe Illustrator 24.0.0, SVG Export Plug-In . SVG Version: 6.00 Build 0)  -->
<svg fill="#f52764" version="1.1" id="Webicons" xmlns="http://www.w3.org/2000/svg" xmlns:xlink="http://www.w3.org/1999/xlink" x="0px" y="0px"
	 viewBox="0 0 36 48.1" style="enable-background:new 0 0 36 48.1;" xml:space="preserve">
<g>
	<g>
		<g>
			<path d="M18,4.1c-9.9,0-18,8.1-18,18s8.1,18,18,18s18-8.1,18-18S27.9,4.1,18,4.1z M18,38.6c-9.1,0-16.5-7.4-16.5-16.5
				S8.9,5.6,18,5.6S34.5,13,34.5,22.1S27.1,38.6,18,38.6z"/>
			<path d="M25.3,14.8c-0.3-0.3-0.8-0.3-1.1,0L18,21l-6.2-6.2c-0.3-0.3-0.8-0.3-1.1,0c-0.3,0.3-0.3,0.8,0,1.1l6.2,6.2l-6.2,6.2
				c-0.3,0.3-0.3,0.8,0,1.1c0.1,0.1,0.3,0.2,0.5,0.2s0.4-0.1,0.5-0.2l6.2-6.2l6.2,6.2c0.1,0.1,0.3,0.2,0.5,0.2s0.4-0.1,0.5-0.2
				c0.3-0.3,0.3-0.8,0-1.1l-6.2-6.2l6.2-6.2C25.6,15.6,25.6,15.1,25.3,14.8z"/>
		</g>
	</g>
</g>
</svg>
