<svg version="1" xmlns="http://www.w3.org/2000/svg" width="552" height="552" viewBox="0 0 414.000000 414.000000"><path d="M90 134.6c0 .3 18.1 26.8 40.3 58.7 22.2 32 40.7 58.8 41.1 59.6.8 1.3-1.9 12.7-3.5 14.4-.4.5-3.6-7.8-7.1-18.5l-6.5-19.3-5.2-.3c-4.1-.2-5.2 0-4.9 1.1.1.7 4.6 12.9 9.8 27l9.5 25.8 4-.3 4-.3 3.4-9.3c1.9-5 3.7-9.2 4-9.2.3 0 5.3 7 11.1 15.5s11 15.4 11.5 15.4c.6 0 2.8-2.6 5-5.9l4-6H230v-8h-14l10.3-14.8c10.4-14.8 53.2-76.4 74.5-107.2 6.3-9.1 11.7-17.1 11.9-17.8.4-.9-6.7-1.2-33.6-1.2h-34l-3.9 5.2c-2.1 2.9-11.8 16.9-21.6 31.1-9.8 14.2-18.2 25.5-18.6 25-.9-1-13.7-19.6-16.3-23.6-1.7-2.7-1.9-2.7-12.3-2.7-5.8 0-10.4.4-10.2.9.9 2.6 38.5 56 39.3 56 1 0 2.6-2.2 24.1-33.2 6-8.6 14.7-21.2 19.5-28l8.5-12.2 12.5-.6c6.8-.3 12.7-.3 13 0 .6.5-47.1 70.1-51.6 75.3-1.3 1.6-3.4 1.8-16.5 1.8h-14.9l-.3 13.7-.3 13.6-4.2-6.1c-2.4-3.3-4.3-6.7-4.3-7.6 0-.9.9-3.9 2-6.8s2-5.6 2-6.1c0-.4-2.2-.7-5-.7-3.7 0-5 .4-5 1.4 0 .8-.4 1.7-.9 2-.8.5-9.1-11-48.9-68.4l-8.3-12h74l5.3 7.5c2.9 4.1 5.6 7.5 5.9 7.5.4 0 2.8-3.2 5.4-7 5.5-8.1 5.6-7.4-2.4-18.8l-5.2-7.2H148c-31.9 0-58 .3-58 .6zm131 102c0 .3-2.1 3.7-4.7 7.4-4 5.7-5.3 6.9-7.5 7H206v-15h7.5c4.1 0 7.5.3 7.5.6z"/><path d="M261.8 228.2c-2.4 3.5-4.7 6.8-5.1 7.5-.5.7 1 3.7 3.5 7.2 10.4 14.7 14.8 21 14.8 21.5 0 .3-5.8.6-13 .6h-12.9l-3.2-4.6c-1.7-2.5-3.4-4.2-3.8-3.7-.4.4-2.9 3.9-5.4 7.6l-4.7 6.8 4 6 4.1 5.9H274c23.1 0 34-.3 34-1.1 0-.5-2.4-4.5-5.4-8.7-12.5-18-19-27.4-26.8-38.9-4.6-6.8-8.6-12.3-9-12.3-.3 0-2.6 2.8-5 6.2zM94 256v27h29v-8h-20v-46h-9v27zM129 256v27h10v-54h-10v27z"/></svg>